<mxfile host="app.diagrams.net" modified="2020-12-04T08:09:29.415Z" agent="5.0 (Windows NT 10.0; Win64; x64) AppleWebKit/537.36 (KHTML, like Gecko) Chrome/86.0.4240.185 YaBrowser/20.11.2.78 Yowser/2.5 Safari/537.36" etag="Fly1lxy_5-tlegTjssp4" version="13.10.6" type="github">
  <diagram name="Page-1" id="822b0af5-4adb-64df-f703-e8dfc1f81529">
    <mxGraphModel dx="1422" dy="1677" grid="1" gridSize="10" guides="1" tooltips="1" connect="1" arrows="1" fold="1" page="1" pageScale="1" pageWidth="1100" pageHeight="850" background="#ffffff" math="0" shadow="0">
      <root>
        <mxCell id="0" />
        <mxCell id="1" parent="0" />
        <mxCell id="dF0cH3uQtv-huA1mjqew-8" style="edgeStyle=orthogonalEdgeStyle;rounded=0;orthogonalLoop=1;jettySize=auto;html=1;" edge="1" parent="1" source="dF0cH3uQtv-huA1mjqew-2" target="dF0cH3uQtv-huA1mjqew-3">
          <mxGeometry relative="1" as="geometry" />
        </mxCell>
        <mxCell id="dF0cH3uQtv-huA1mjqew-9" style="edgeStyle=orthogonalEdgeStyle;rounded=0;orthogonalLoop=1;jettySize=auto;html=1;" edge="1" parent="1" source="dF0cH3uQtv-huA1mjqew-2" target="dF0cH3uQtv-huA1mjqew-5">
          <mxGeometry relative="1" as="geometry" />
        </mxCell>
        <mxCell id="dF0cH3uQtv-huA1mjqew-10" style="edgeStyle=orthogonalEdgeStyle;rounded=0;orthogonalLoop=1;jettySize=auto;html=1;" edge="1" parent="1" source="dF0cH3uQtv-huA1mjqew-2" target="dF0cH3uQtv-huA1mjqew-7">
          <mxGeometry relative="1" as="geometry" />
        </mxCell>
        <mxCell id="dF0cH3uQtv-huA1mjqew-11" style="edgeStyle=orthogonalEdgeStyle;rounded=0;orthogonalLoop=1;jettySize=auto;html=1;" edge="1" parent="1" source="dF0cH3uQtv-huA1mjqew-2" target="dF0cH3uQtv-huA1mjqew-6">
          <mxGeometry relative="1" as="geometry" />
        </mxCell>
        <mxCell id="dF0cH3uQtv-huA1mjqew-2" value="" style="verticalLabelPosition=bottom;aspect=fixed;html=1;verticalAlign=top;strokeColor=none;align=center;outlineConnect=0;shape=mxgraph.citrix.database_server;" vertex="1" parent="1">
          <mxGeometry x="440" y="120" width="80" height="90" as="geometry" />
        </mxCell>
        <mxCell id="dF0cH3uQtv-huA1mjqew-3" value="" style="verticalLabelPosition=bottom;aspect=fixed;html=1;verticalAlign=top;strokeColor=none;align=center;outlineConnect=0;shape=mxgraph.citrix.laptop_1;" vertex="1" parent="1">
          <mxGeometry x="150" y="120" width="91" height="77" as="geometry" />
        </mxCell>
        <mxCell id="dF0cH3uQtv-huA1mjqew-5" value="" style="verticalLabelPosition=bottom;aspect=fixed;html=1;verticalAlign=top;strokeColor=none;align=center;outlineConnect=0;shape=mxgraph.citrix.laptop_1;" vertex="1" parent="1">
          <mxGeometry x="435" y="400" width="91" height="77" as="geometry" />
        </mxCell>
        <mxCell id="dF0cH3uQtv-huA1mjqew-6" value="" style="verticalLabelPosition=bottom;aspect=fixed;html=1;verticalAlign=top;strokeColor=none;align=center;outlineConnect=0;shape=mxgraph.citrix.laptop_1;" vertex="1" parent="1">
          <mxGeometry x="429" y="-40" width="91" height="77" as="geometry" />
        </mxCell>
        <mxCell id="dF0cH3uQtv-huA1mjqew-7" value="" style="verticalLabelPosition=bottom;aspect=fixed;html=1;verticalAlign=top;strokeColor=none;align=center;outlineConnect=0;shape=mxgraph.citrix.laptop_1;" vertex="1" parent="1">
          <mxGeometry x="710" y="110" width="91" height="77" as="geometry" />
        </mxCell>
      </root>
    </mxGraphModel>
  </diagram>
</mxfile>
